<svg xmlns="http://www.w3.org/2000/svg" version="1.1" xmlns:xlink="http://www.w3.org/1999/xlink" xmlns:svgjs="http://svgjs.dev/svgjs" width="1000" height="1125" viewBox="0 0 1000 1125"><g transform="matrix(1,0,0,1,0,0)"><svg viewBox="0 0 320 360" data-background-color="#ffffff" preserveAspectRatio="xMidYMid meet" height="1125" width="1000" xmlns="http://www.w3.org/2000/svg" xmlns:xlink="http://www.w3.org/1999/xlink"><g id="tight-bounds" transform="matrix(1,0,0,1,0,0)"><svg viewBox="0 0 320 360" height="360" width="320"><g><svg></svg></g><g><svg viewBox="0 0 320 360" height="360" width="320"><g><path d="M219.58 41.008c0.707 0 6.365 2.829 9.547 3.89-1.061 0.354-3.536-0.707-6.365-1.768 0.707 0 2.122 0.354 3.536 1.06-0.707-0.707-6.011-2.475-6.718-3.182M166.895 30.047c1.061-0.354 13.436 1.414 19.094 1.768 0.354-0.354-0.707-0.354-2.122-0.707 1.768-0.354 5.304 0.707 7.779 1.06-7.425 0.354-15.558-1.768-22.629-1.06-2.475 0-0.707-0.707-2.122-1.061M156.641 30.047c6.365 0 11.315 0 2.121 0.707-1.061-0.354-2.475-0.354-2.121-0.707M256.707 59.395c0.707 0 3.536 3.182 4.95 4.243-0.354 0.354-3.182-2.475-4.596-3.536 0.354 0.354 0 0-0.354-0.707M249.635 54.798c-2.829-2.475-3.889-2.475-4.243-3.889 2.475 1.414 4.243 2.829 4.243 3.889M204.022 32.522c0.354-0.354 1.061 0.354 2.829 0.707-2.122-0.354-1.768 0-1.061 0.707-2.475-0.354-3.182-0.707-2.475-1.414 1.414 0.707 1.768 0.354 0.707 0M103.602 36.765c0-0.354 1.414-1.061 2.475-1.414-1.061 0.707-0.707 1.061 1.061 0.353 0 0.354-2.122 1.061-3.536 1.768 0.707-0.354 1.414-1.414 0-0.707M211.094 28.986c-1.061 0.354-4.95-1.768-8.84-2.475-2.122-0.707 8.486 1.768 8.84 2.475M2.475 203.66c2.122 8.84 0.707 8.486 0 0M2.829 150.621c0.354-1.414 0.707-5.304 1.06-4.95-1.061 8.486-2.829 12.376-3.182 18.74 1.061-5.657-0.354 3.182-0.707 5.304 0.354 2.829 0.354-1.768 1.061-1.06 0.707 1.061-1.414 15.912-0.707 7.779-0.707 7.425 0 15.558 1.414 17.679-1.768 11.315 7.072 36.773 8.84 42.077 0.354 0.354 0-1.768 0.707-0.353 0.707 4.597 3.889 7.779 4.95 12.729 1.061 1.414 5.304 9.193 6.011 10.962 1.414 2.829 2.122 2.475 3.536 5.303 4.243 8.133 10.961 15.912 17.326 23.337 20.508 24.044 51.978 43.845 86.984 50.918 35.006 7.425 71.779 2.122 100.419-11.669 1.768-1.061 1.414-1.414 3.536-2.122 9.901-3.182 21.923-13.436 28.641-17.326 3.182-3.536 11.669-9.547 12.73-13.082 6.011-4.95 12.022-13.083 15.204-18.387 1.768-2.829 3.182-2.829 3.889-4.597-0.354 0 5.657-7.425 7.426-11.668-0.707 0-1.768 2.122-1.768 0 12.729-24.398 19.801-57.282 15.911-79.912 0.707 27.934-6.365 59.05-19.801 78.851-6.011 12.729-18.387 26.519-29.701 36.42-1.768 1.768-3.536 3.889-5.658 5.304-6.718 5.657-14.144 10.254-21.922 14.497-18.387 10.254-38.895 19.094-62.94 19.447 41.37-3.536 78.497-24.398 99.006-49.856-15.558 15.204-22.276 21.215-39.602 30.055-1.414 2.475-13.083 7.425-20.862 9.547 4.597-2.122 14.144-5.657 17.326-8.486-25.812 12.376-54.453 19.448-81.326 15.558 10.254 0 24.751 0.354 38.541-2.121 2.122-0.707 3.182-1.414 5.658-1.768 26.873-6.011 52.685-19.094 71.072-37.481-10.608 9.547-26.519 20.862-36.774 24.398 9.547-5.304 26.873-15.558 32.53-23.337-11.315 11.315-32.53 22.63-45.966 27.58-2.122 0.354 1.414-1.414-2.122 0-4.243 1.061-2.475 1.061-3.536 1.768-16.265 4.597-35.006 8.486-50.563 7.072-2.829-0.354-3.889-1.061-6.365-1.061-2.829-0.354-5.304-0.354-8.486-0.354-12.376-1.414-25.812-6.365-35.713-10.607-5.304-2.475-10.608-4.243-15.912-7.426-4.243-2.475-7.779-5.304-11.314-8.132-13.436-9.901-24.751-19.801-35.36-33.945-19.094-26.519-28.994-59.757-27.58-92.641 1.414-32.884 14.497-65.061 35.359-88.752-1.061 1.061 1.414-2.475 3.536-4.596 0 0.707-0.354 1.768 2.122-0.707 2.122-2.475-0.707-0.707 0.353-2.122 21.923-24.044 60.111-43.492 99.36-44.199 1.414-1.061 3.889-2.475 6.718-1.768 0 0.354-1.768 0.354-1.768 0.354 3.889-0.354 7.425-0.354 9.193 0.353 0.354-0.354-1.414-0.707 0-0.707 2.475 0.707 3.182 0 4.597 0.707-1.061 0-2.122 0-2.829 0.354 8.84 0 14.497 2.122 23.337 2.829-4.597-1.061-5.657-1.061-9.193-2.122 3.889 0.707 5.657 1.414 7.425 1.061-0.707 0-0.354-1.061 0.354-0.707 7.072 1.768 7.779 2.475 15.204 4.95 0.707-0.707-3.182-1.061-4.243-2.122 7.072 2.475 13.436 4.243 17.68 7.072-1.414-1.061-5.657-2.475-8.84-3.889-0.354 0.354 1.061 0.707 1.414 1.414-3.536-1.768-8.486-3.536-13.436-4.243 4.243 1.061 7.072 2.475 8.84 3.182-3.889-0.707-8.84-3.182-14.498-4.243 9.193 2.829 26.519 9.193 37.127 14.851-3.889-2.475-8.486-4.243-10.961-5.657 2.122 0.354 4.597 1.768 4.597 1.06 2.475 1.061 5.657 3.536 7.425 3.89-3.182-2.122-9.547-5.304-11.668-6.365 26.519 12.022 50.21 32.177 65.414 57.989 1.414 2.475 3.536 8.133 5.304 8.84-0.354-1.768-1.768-2.829-3.182-5.657 0.707 0 0.707-1.061 0-2.122-1.414-1.768 0 1.414-1.415-0.354-6.365-11.669-14.144-21.923-26.165-33.237 6.718 6.365 1.768 1.768 0.353-0.354 9.193 8.133 19.801 21.923 24.398 28.995-0.707-1.061-1.061-1.768-0.707-1.768 8.486 14.497 13.79 27.58 19.094 46.32 0.354 0.354 0-1.414 0.707-0.353 3.536 14.851 4.597 27.227 4.243 38.541 2.829-19.094-3.536-48.796-14.851-72.133-1.414-2.829-1.414-0.707-2.829-3.889 0-1.061-1.061-3.182-1.768-4.597-14.144-23.337-31.47-39.956-51.978-53.038 1.414 0.707 4.243 2.829 4.244 2.475-38.188-25.105-82.387-28.641-118.807-20.862-2.475 1.061-3.536 2.122-6.365 3.536 5.304-1.768 8.486-2.122 13.437-3.183 1.061-1.061-4.597 0.354-2.122-0.707 0.354 0.354 4.95-0.707 6.011-0.353 0 0.354-1.414 0.707-1.768 1.06 11.669-2.475 23.691-2.829 33.945-2.121-6.011 0.354-16.972-0.707-20.508 1.061 3.536-0.354 8.486-0.707 11.668-0.354-4.243 0-12.022 0.354-15.558 0.707-0.354-0.354 5.657-1.061 1.768-1.06-1.768 0.354-4.597 0.354-5.657 1.414-30.409 2.829-60.111 18.74-80.973 37.481-4.243 3.536-9.193 7.425-12.375 11.314-7.779 8.84-12.729 17.68-18.387 25.459 3.536-7.425 11.315-18.74 20.508-28.287 9.193-9.547 19.094-17.68 24.398-21.923 0 1.414 8.486-5.304 11.669-7.425-2.122 1.768 1.414-0.707 2.121-0.354 11.315-6.718 20.508-9.193 30.763-13.083-2.475 0.707-4.597 1.414-4.951 1.061 2.475-0.707 3.889-1.414 3.536-1.768-9.901 2.829-25.459 9.547-37.834 16.972 22.276-15.204 50.564-24.398 78.497-24.751 27.934-0.707 55.16 6.365 76.729 17.68 14.497 6.365 28.287 18.033 39.249 29.348 3.182 2.829 0.707-0.707 5.304 4.243-1.414-0.707-2.475-1.414-0.707 0.707 2.829 3.182-0.707-2.475 3.889 3.182-0.354 0-1.768-1.768-1.768-1.061 12.376 10.961 21.923 30.762 27.58 43.846-1.414-5.304-4.95-12.729-7.779-18.033 8.486 15.558 11.315 24.751 14.851 38.541 1.414 1.061-0.707-4.95 0.707-2.121 0.354 2.122 0.707 8.84 2.122 9.9-1.061-6.718-2.829-14.851-4.243-16.265 1.061 0.707-1.768-8.133-3.536-10.254-0.707-5.657-5.657-15.558-9.901-22.984-15.204-29.702-42.431-54.099-72.839-67.536 0-0.707-1.768-1.414-2.476-2.121-30.055-12.729-66.122-16.265-100.773-8.133-35.006 8.486-67.889 28.641-91.227 57.636 1.061-3.536 9.901-10.254 10.255-13.083-10.254 10.961-21.215 25.459-28.641 41.016-7.779 15.558-12.022 31.47-13.79 43.138" fill="#ee3e38" fill-rule="nonzero" stroke="none" stroke-width="1" stroke-linecap="butt" stroke-linejoin="miter" stroke-miterlimit="10" stroke-dasharray="" stroke-dashoffset="0" font-family="none" font-weight="none" font-size="none" text-anchor="none" style="mix-blend-mode: normal" data-fill-palette-color="tertiary"></path></g><g transform="matrix(1,0,0,1,48.000000000000014,160.7574165112731)"><svg viewBox="0 0 223.99999999999997 38.4851669774538" height="38.4851669774538" width="223.99999999999997"><g><svg viewBox="0 0 223.99999999999997 38.4851669774538" height="38.4851669774538" width="223.99999999999997"><g><svg viewBox="0 0 224.00000000000003 38.48516697745381" height="38.4851669774538" width="223.99999999999997"><g><svg viewBox="0 0 224.00000000000003 38.48516697745381" height="38.48516697745381" width="224.00000000000003"><g id="textblocktransform"><svg viewBox="0 0 224.00000000000003 38.48516697745381" height="38.48516697745381" width="224.00000000000003" id="textblock"><g><svg viewBox="0 0 224.00000000000003 38.48516697745381" height="38.48516697745381" width="224.00000000000003"><g transform="matrix(1,0,0,1,0,0)"><svg width="224.00000000000003" viewBox="1 -37.99 288.02 49.49" height="38.48516697745381" data-palette-color="#ee3e38"><path d="M1-18.6L1-25.29 14.21-25.29 14.21-18.6 11.13-18.6 15.26-7.74 19.24-18.6 16.5-18.6 16.5-25.29 29.71-25.29 29.71-18.6 26.34-18.6 18.8 0.1 11.35 0.1 3.81-18.6 1-18.6ZM32.44-12.74L32.44-12.74Q32.44-15.5 33.44-17.92 34.45-20.34 36.23-22.14 38.01-23.95 40.48-25 42.94-26.05 45.9-26.05L45.9-26.05Q48.85-26.05 51.33-25 53.81-23.95 55.59-22.14 57.37-20.34 58.36-17.92 59.35-15.5 59.35-12.74L59.35-12.74Q59.35-9.99 58.38-7.56 57.42-5.13 55.65-3.31 53.88-1.49 51.4-0.44 48.92 0.61 45.9 0.61L45.9 0.61Q42.84 0.61 40.37-0.44 37.89-1.49 36.13-3.3 34.37-5.1 33.41-7.53 32.44-9.96 32.44-12.74ZM39.74-12.74L39.74-12.74Q39.74-11.3 40.23-10.1 40.72-8.89 41.56-8.01 42.4-7.13 43.52-6.64 44.63-6.15 45.9-6.15L45.9-6.15Q47.19-6.15 48.3-6.63 49.41-7.1 50.23-7.98 51.05-8.86 51.51-10.07 51.98-11.28 51.98-12.74L51.98-12.74Q51.98-14.26 51.51-15.48 51.05-16.7 50.23-17.55 49.41-18.41 48.3-18.86 47.19-19.31 45.9-19.29L45.9-19.29Q44.63-19.31 43.52-18.86 42.4-18.41 41.56-17.55 40.72-16.7 40.23-15.48 39.74-14.26 39.74-12.74ZM62.52-31.3L62.52-37.99 73.92-37.99 73.92-6.69 77.83-6.69 77.83 0 62.52 0 62.52-6.69 66.43-6.69 66.43-31.3 62.52-31.3ZM81.88-12.74L81.88-12.74Q81.88-15.5 82.88-17.92 83.88-20.34 85.66-22.14 87.44-23.95 89.91-25 92.38-26.05 95.33-26.05L95.33-26.05Q98.28-26.05 100.76-25 103.24-23.95 105.02-22.14 106.8-20.34 107.79-17.92 108.78-15.5 108.78-12.74L108.78-12.74Q108.78-9.99 107.82-7.56 106.85-5.13 105.08-3.31 103.31-1.49 100.83-0.44 98.36 0.61 95.33 0.61L95.33 0.61Q92.28 0.61 89.8-0.44 87.32-1.49 85.56-3.3 83.81-5.1 82.84-7.53 81.88-9.96 81.88-12.74ZM89.18-12.74L89.18-12.74Q89.18-11.3 89.67-10.1 90.15-8.89 91-8.01 91.84-7.13 92.95-6.64 94.06-6.15 95.33-6.15L95.33-6.15Q96.62-6.15 97.73-6.63 98.85-7.1 99.66-7.98 100.48-8.86 100.94-10.07 101.41-11.28 101.41-12.74L101.41-12.74Q101.41-14.26 100.94-15.48 100.48-16.7 99.66-17.55 98.85-18.41 97.73-18.86 96.62-19.31 95.33-19.29L95.33-19.29Q94.06-19.31 92.95-18.86 91.84-18.41 91-17.55 90.15-16.7 89.67-15.48 89.18-14.26 89.18-12.74ZM128.6-17.55Q128.6-18.14 128.22-18.68 127.85-19.21 127.11-19.62 126.38-20.02 125.32-20.26 124.26-20.51 122.91-20.51L122.91-20.51Q122.4-20.51 121.82-20.42 121.23-20.34 120.73-20.12 120.23-19.9 119.9-19.52 119.57-19.14 119.57-18.55L119.57-18.55Q119.57-18.26 119.66-17.99 119.74-17.72 119.99-17.48 120.23-17.24 120.66-17.03 121.08-16.82 121.77-16.7L121.77-16.7 126.36-15.8Q128.85-15.31 130.53-14.58 132.22-13.84 133.24-12.87 134.27-11.89 134.72-10.69 135.17-9.5 135.17-8.11L135.17-8.11Q135.17-5.93 134.16-4.3 133.14-2.66 131.5-1.57 129.85-0.49 127.79 0.06 125.72 0.61 123.62 0.61L123.62 0.61Q122.26 0.61 121.14 0.44 120.03 0.27 119.14-0.02 118.25-0.32 117.56-0.72 116.86-1.12 116.27-1.61L116.27-1.61 111.86-1.61 111.86-8.4 118.76-8.4 118.76-8.25Q118.79-7.54 119.2-7.02 119.62-6.49 120.29-6.13 120.96-5.76 121.82-5.58 122.67-5.4 123.62-5.4L123.62-5.4Q125.82-5.4 126.82-5.97 127.82-6.54 127.82-7.45L127.82-7.45Q127.82-8.15 127.33-8.65 126.85-9.16 125.6-9.45L125.6-9.45 120.91-10.45Q116.49-11.3 114.25-13.29 112-15.28 112-18.41L112-18.41Q112-20.24 112.86-21.74 113.71-23.24 115.18-24.3 116.64-25.37 118.61-25.95 120.57-26.54 122.82-26.54L122.82-26.54Q124.36-26.54 125.55-26.35 126.75-26.17 127.7-25.88 128.65-25.59 129.37-25.18 130.09-24.78 130.65-24.34L130.65-24.34 134.9-24.34 134.9-17.55 128.6-17.55ZM164.56-11.06L145.93-11.06 146.01-10.3Q146.28-9.2 146.92-8.37 147.57-7.54 148.45-6.98 149.33-6.42 150.4-6.14 151.48-5.86 152.58-5.86L152.58-5.86Q153.67-5.86 154.66-5.99 155.65-6.13 156.58-6.36 157.51-6.59 158.39-6.9 159.26-7.2 160.17-7.54L160.17-7.54 162.85-2.54Q161.46-1.68 160.3-1.09 159.14-0.49 157.97-0.1 156.8 0.29 155.48 0.48 154.16 0.66 152.4 0.66L152.4 0.66Q149.11 0.66 146.55-0.43 143.98-1.51 142.24-3.37 140.49-5.22 139.57-7.71 138.66-10.21 138.66-12.99L138.66-12.99Q138.66-15.77 139.62-18.21 140.59-20.65 142.35-22.47 144.1-24.29 146.55-25.34 148.99-26.39 151.97-26.39L151.97-26.39Q154.94-26.39 157.25-25.4 159.56-24.41 161.14-22.67 162.73-20.92 163.59-18.57 164.44-16.21 164.51-13.5L164.51-13.5Q164.59-12.89 164.6-12.29 164.61-11.69 164.56-11.06L164.56-11.06ZM151.77-20.29L151.77-20.29Q150.4-20.29 149.44-19.96 148.47-19.63 147.81-19.06 147.16-18.48 146.76-17.75 146.37-17.02 146.15-16.21L146.15-16.21 156.73-16.21Q156.55-17.04 156.24-17.77 155.92-18.51 155.36-19.07 154.8-19.63 153.93-19.96 153.06-20.29 151.77-20.29ZM167.37-18.6L167.37-25.29 180.58-25.29 180.58-18.6 177.5-18.6 181.63-7.74 185.61-18.6 182.87-18.6 182.87-25.29 196.08-25.29 196.08-18.6 192.71-18.6 185.17 0.1 177.72 0.1 170.18-18.6 167.37-18.6ZM198.3-18.6L198.3-25.29 210.7-25.29 210.7-18.6 208.75-18.6 212.38-9.13 216.12-18.6 213.95-18.6 213.95-25.29 226.35-25.29 226.35-18.6 223.59-18.6 213.8 4.81 218.15 4.81 218.15 11.5 202.45 11.5 202.45 4.81 206.87 4.81 208.77 0 200.86-18.6 198.3-18.6ZM254.98-16.55L248.25-16.55Q247.2-17.87 245.9-18.54 244.61-19.21 242.85-19.12L242.85-19.12Q241.44-19.21 240.28-18.73 239.12-18.24 238.27-17.36 237.43-16.48 236.97-15.27 236.5-14.06 236.5-12.55L236.5-12.55Q236.5-11.21 236.99-10.01 237.48-8.81 238.32-7.95 239.16-7.08 240.32-6.59 241.48-6.1 242.85-6.01L242.85-6.01Q244-6.1 244.94-6.48 245.88-6.86 246.61-7.46 247.34-8.06 247.87-8.8 248.39-9.55 248.69-10.21L248.69-10.21 255.4-8.35Q254.98-6.88 253.97-5.3 252.96-3.71 251.33-2.4 249.71-1.1 247.48-0.24 245.24 0.61 242.39 0.61L242.39 0.61Q239.48 0.61 237.04-0.45 234.6-1.51 232.84-3.34 231.08-5.18 230.09-7.64 229.11-10.11 229.11-12.94L229.11-12.94Q229.11-15.75 230.12-18.15 231.13-20.56 232.91-22.35 234.7-24.15 237.15-25.15 239.6-26.15 242.48-26.05L242.48-26.05Q244.54-26.15 246.46-25.59 248.39-25.02 250.13-23.9L250.13-23.9 254.98-23.9 254.98-16.55ZM257.55-31.3L257.55-37.99 268.95-37.99 268.95-22.95Q270.39-24.27 272.11-25.01 273.83-25.76 275.91-25.76L275.91-25.76Q280.47-25.76 282.89-23.21 285.3-20.65 285.3-15.75L285.3-15.75 285.3-6.69 289.02-6.69 289.02 0 277.71 0 277.71-14.04Q277.71-16.16 276.66-17.38 275.61-18.6 273.95-18.6L273.95-18.6Q272.85-18.6 271.56-17.99 270.27-17.38 268.95-16.21L268.95-16.21 268.95-6.69 272.66-6.69 272.66 0 257.55 0 257.55-6.69 261.45-6.69 261.45-31.3 257.55-31.3Z" opacity="1" transform="matrix(1,0,0,1,0,0)" fill="#ee3e38" class="wordmark-text-0" data-fill-palette-color="primary" id="text-0"></path></svg></g></svg></g></svg></g></svg></g><g></g></svg></g></svg></g></svg></g></svg></g><defs></defs></svg><rect width="320" height="360" fill="none" stroke="none" visibility="hidden"></rect></g></svg></g></svg>